<?xml version="1.0" encoding="UTF-8"?>
<!DOCTYPE svg PUBLIC "-//W3C//DTD SVG 1.1//EN" "http://www.w3.org/Graphics/SVG/1.1/DTD/svg11.dtd">
<!-- Creator: CorelDRAW Standard 2021 (64-Bit) -->
<svg xmlns="http://www.w3.org/2000/svg" xml:space="preserve" width="15mm" height="11mm" version="1.1" style="shape-rendering:geometricPrecision; text-rendering:geometricPrecision; image-rendering:optimizeQuality; fill-rule:evenodd; clip-rule:evenodd"
viewBox="0 0 1500 1100"
 xmlns:xlink="http://www.w3.org/1999/xlink"
 xmlns:xodm="http://www.corel.com/coreldraw/odm/2003">
 <defs>
  <style type="text/css">
   <![CDATA[
    .fil0 {fill:black}
   ]]>
  </style>
 </defs>
 <g id="Layer_x0020_1">
  <metadata id="CorelCorpID_0Corel-Layer"/>
  <path class="fil0" d="M313.57 1072.18l-199.32 0c-44.85,0 -76.73,-9.92 -95.85,-29.98 -19.12,-20.08 -28.81,-52.18 -28.81,-95.85l0 -762.58c0,-44.62 9.92,-76.73 29.51,-96.34 19.6,-19.59 51.23,-29.51 95.15,-29.51l327.9 0 0 -0.02 319.99 0 2.06 0 143.7 0 184.95 0c48.4,0 90.41,3.08 125.83,8.98 35.66,6.14 67.53,17.47 95.62,34.7 24.08,14.18 45.09,32.35 63.74,54.31 18.43,21.95 32.35,46.03 42.03,72.48 9.67,26.67 14.64,54.53 14.64,84.04 0,101.53 -50.76,175.89 -152.28,222.88 133.39,42.49 199.97,124.89 199.97,247.66 0,56.67 -14.64,107.9 -43.67,153.23 -29.05,45.56 -68.23,79.08 -117.59,100.57 -30.92,12.98 -66.34,22.2 -106.47,27.39 -40.14,5.43 -87.12,8.03 -140.48,8.03l-68.33 0 0 0.13 -692.29 0 0 -0.12zm745.28 -450.48l-213.9 0 0 296.06 220.74 0c139.06,0 208.47,-50.05 208.47,-150.15 0,-51.25 -17.93,-88.3 -54.06,-111.44 -35.88,-22.91 -89.72,-34.47 -161.25,-34.47zm-213.9 -409.39l0 262.07 188.4 0c51.23,0 90.65,-4.96 118.53,-14.64 28.09,-9.68 49.33,-28.1 64.21,-55.24 11.56,-19.36 17.23,-41.09 17.23,-64.93 0,-51.23 -18.18,-85.23 -54.78,-102 -36.35,-16.76 -92.07,-25.26 -166.67,-25.26l-166.92 0zm-436.05 409.41l-213.9 0 0 296.05 220.75 0c139.05,0 208.46,-50.04 208.46,-150.14 0,-51.25 -17.93,-88.31 -54.05,-111.45 -35.89,-22.9 -89.73,-34.46 -161.26,-34.46zm-213.9 -409.39l0 262.07 188.4 0c51.23,0 90.65,-4.97 118.53,-14.64 28.09,-9.69 49.34,-28.11 64.21,-55.24 11.56,-19.36 17.23,-41.1 17.23,-64.94 0,-51.23 -18.18,-85.22 -54.77,-101.99 -36.36,-16.76 -92.08,-25.26 -166.68,-25.26l-166.92 0z"/>
 </g>
</svg>
